HIERARCHY
ROOT root
{
	OFFSET	0	13.1	24.9
	CHANNELS 6  Xposition Yposition Zposition Xrotation Yrotation Zrotation
	JOINT spine_1
	{
		OFFSET	0	9.99999	0
		CHANNELS 3  Xrotation Yrotation Zrotation
		JOINT spine_2
		{
			OFFSET	0	112	-10
			CHANNELS 3  Xrotation Yrotation Zrotation
			JOINT spine_3
			{
				OFFSET	0	206.5	19.3
				CHANNELS 3  Xrotation Yrotation Zrotation
				JOINT spine_4
				{
					OFFSET	0	110.4	14.6
					CHANNELS 3  Xrotation Yrotation Zrotation
					JOINT neck_1
					{
						OFFSET	0	71.8	-50.3
						CHANNELS 3  Xrotation Yrotation Zrotation
						JOINT neck_2
						{
							OFFSET	0	86.2	-25.8
							CHANNELS 3  Xrotation Yrotation Zrotation
							JOINT head_ee
							{
								OFFSET	0	179.8	-8.7
								CHANNELS 3  Xrotation Yrotation Zrotation
								End Site
								{
									OFFSET	1	0	0
								}
							}
						}
					}
					JOINT left_clavicle
					{
						OFFSET	-43.2	22.4	-70.8
						CHANNELS 3  Xrotation Yrotation Zrotation
						JOINT left_shoulder
						{
							OFFSET	-93.9	-5.79999	48.7
							CHANNELS 3  Xrotation Yrotation Zrotation
							JOINT left_elbow
							{
								OFFSET	-291.4	-30.8	15.2
								CHANNELS 3  Xrotation Yrotation Zrotation
								JOINT left_lowarm_twist
								{
									OFFSET	-110.7	-3.89999	13.6
									CHANNELS 3  Xrotation Yrotation Zrotation
									JOINT left_hand
									{
										OFFSET	-110.7	-3.89999	13.6
										CHANNELS 3  Xrotation Yrotation Zrotation
										JOINT left_ee
										{
											OFFSET	-80.8	-5.10001	12.1
											CHANNELS 3  Xrotation Yrotation Zrotation
											End Site
											{
												OFFSET	1	0	0
											}
										}
									}
								}
							}
						}
					}
					JOINT right_clavicle
					{
						OFFSET	43.2	22.4	-70.8
						CHANNELS 3  Xrotation Yrotation Zrotation
						JOINT right_shoulder
						{
							OFFSET	93.9	-5.79999	48.7
							CHANNELS 3  Xrotation Yrotation Zrotation
							JOINT right_elbow
							{
								OFFSET	291.4	-30.8	15.2
								CHANNELS 3  Xrotation Yrotation Zrotation
								JOINT right_lowarm_twist
								{
									OFFSET	110.7	-3.89999	13.6
									CHANNELS 3  Xrotation Yrotation Zrotation
									JOINT right_hand
									{
										OFFSET	110.7	-3.89999	13.6
										CHANNELS 3  Xrotation Yrotation Zrotation
										JOINT right_ee
										{
											OFFSET	80.8	-5.10001	12.1
											CHANNELS 3  Xrotation Yrotation Zrotation
											End Site
											{
												OFFSET	1	0	0
											}
										}
									}
								}
							}
						}
					}
				}
			}
		}
	}
	JOINT left_hip
	{
		OFFSET	-82.8	-127.5	0.300001
		CHANNELS 3  Xrotation Yrotation Zrotation
		JOINT left_knee
		{
			OFFSET	-28.2	-396.7	2.2
			CHANNELS 3  Xrotation Yrotation Zrotation
			JOINT left_ankle
			{
				OFFSET	-11.7	-411.3	35.4
				CHANNELS 3  Xrotation Yrotation Zrotation
				JOINT left_toes
				{
					OFFSET	0	-60	-88.6
					CHANNELS 3  Xrotation Yrotation Zrotation
					JOINT left_foot_ee
					{
						OFFSET	-22.5	-16.5	-42.2
						CHANNELS 3  Xrotation Yrotation Zrotation
						End Site
						{
							OFFSET	1	0	0
						}
					}
				}
			}
		}
	}
	JOINT right_hip
	{
		OFFSET	82.8	-127.5	0.300001
		CHANNELS 3  Xrotation Yrotation Zrotation
		JOINT right_knee
		{
			OFFSET	28.2	-396.7	2.2
			CHANNELS 3  Xrotation Yrotation Zrotation
			JOINT right_ankle
			{
				OFFSET	11.7	-411.3	35.4
				CHANNELS 3  Xrotation Yrotation Zrotation
				JOINT right_toes
				{
					OFFSET	0	-60	-88.6
					CHANNELS 3  Xrotation Yrotation Zrotation
					JOINT right_foot_ee
					{
						OFFSET	22.5	-16.5	-42.2
						CHANNELS 3  Xrotation Yrotation Zrotation
						End Site
						{
							OFFSET	1	0	0
						}
					}
				}
			}
		}
	}
}
MOTION
Frames: 13
Frame Time: 0.02
2668.28 694.926 -497.54 177.374 -42.9719 177.199 -0.425719 -0.0576911 0.632682 -0.425501 -0.0978325 0.627729 -0.42649 -0.232 0.591432 -0.426952 -0.135684 0.620648 -4.9055 16.9134 0.343235 -4.6791 30.8958 3.25061 -0.0 0.0 -0.0 5.75354 23.2272 10.6867 -28.9938 -43.697 68.4342 0.399887 -11.205 0.0392271 35.6281 -0.141609 -4.47658 0.237081 0.803544 1.91839 -0.0 0.0 -0.0 10.6365 13.4923 -21.1662 -35.9515 68.81 -24.3953 0.634408 17.4463 -0.0973417 0.424974 -0.0147797 0.0522628 -0.153616 27.939 12.8131 0.0 0.0 0.0 20.2199 -1.73701 -9.17618 -4.78026 0.16709 0.714387 -14.6742 29.5472 2.3527 3.56485 -0.0 -0.0 -0.0 0.0 -0.0 5.16785 14.5617 6.3753 -35.2884 0.194542 -5.32753 13.1395 6.38589 1.90337 32.2412 -0.0 -0.0 0.0 0.0 0.0 
2695.56 697.618 -493.532 177.719 -40.7974 178.111 -0.362687 0.167262 0.488168 -0.362565 0.13586 0.497821 -0.361279 0.0249481 0.515423 -0.361634 0.106036 0.505015 -4.46003 16.5477 1.43305 -4.22052 29.3268 4.18656 -0.0 0.0 -0.0 6.25447 24.122 11.3323 -30.5002 -43.4128 66.6267 0.409204 -11.4592 0.0410578 34.8776 -0.109978 -4.386 0.369463 -1.08674 2.01553 -0.0 0.0 -0.0 10.6025 15.5215 -21.015 -31.065 64.2743 -31.269 0.695136 19.0012 -0.116335 2.13971 -0.0704608 0.264193 0.488631 28.5593 8.91987 0.0 0.0 0.0 20.7998 -1.17822 -9.84306 -8.56777 0.256807 1.28859 -10.7219 30.0681 1.71816 3.73495 -0.0 -0.0 -0.0 0.0 -0.0 5.67404 15.0776 6.78172 -36.3339 0.250156 -5.47823 12.1572 10.0861 1.80107 32.8099 -0.0 -0.0 0.0 0.0 0.0 
2717.37 695.865 -491.227 177.991 -41.5151 178.248 -0.15799 0.150512 0.228718 -0.157971 0.135653 0.237832 -0.157381 0.0819198 0.261256 -0.157455 0.122152 0.24504 -3.97694 17.0791 2.33935 -3.68769 29.5291 5.07955 -0.0 0.0 -0.0 6.30958 24.2991 11.3956 -31.3971 -42.42 66.7742 0.482542 -13.4438 0.0568727 34.784 -0.106115 -4.37467 0.151487 -0.864006 0.649219 -0.0 0.0 -0.0 9.65552 14.1241 -18.9663 -28.4019 64.1797 -36.2821 0.672775 18.4319 -0.109159 4.19604 -0.128827 0.520363 0.732108 28.601 7.37892 0.0 0.0 0.0 21.1691 -0.751619 -9.18642 -8.72271 0.259668 1.3122 -9.90004 29.9346 1.58343 2.79451 -0.0 -0.0 -0.0 0.0 -0.0 6.47806 16.2165 5.99387 -38.1504 0.353308 -5.7376 10.5327 11.0046 1.57897 34.1058 -0.0 -0.0 0.0 0.0 0.0 
2738.88 699.189 -490.576 178.591 -41.44 179.444 -0.0828734 0.00374809 -0.226196 -0.0828452 0.0181339 -0.225499 -0.0829058 0.0654372 -0.216557 -0.0829697 0.030415 -0.224173 -2.32824 17.4414 1.98544 -1.86533 30.111 4.36084 -0.0 0.0 -0.0 7.59054 23.9385 13.2397 -33.7469 -40.762 61.7063 0.524191 -14.5566 0.0669491 35.471 -0.134887 -4.45764 0.577894 -1.85846 3.09227 -0.0 0.0 -0.0 9.52095 15.0017 -18.6315 -29.5414 61.6752 -37.7078 0.612353 16.8749 -0.090834 3.44619 -0.10861 0.426712 1.24706 28.583 4.08932 0.0 0.0 0.0 21.4407 -0.927361 -9.44309 -9.8013 0.277808 1.47671 -7.99016 29.5163 1.27112 3.61111 -0.0 -0.0 -0.0 0.0 -0.0 8.92704 16.5845 5.39828 -41.3472 0.554694 -6.18583 7.00064 15.3174 1.09482 31.9095 -0.0 -0.0 0.0 0.0 0.0 
2760.01 704.136 -486.705 179.096 -40.8972 -179.813 -0.0444805 -0.0438176 -0.419803 -0.0443826 -0.0170159 -0.42174 -0.0442088 0.072326 -0.41584 -0.0444501 0.00574464 -0.422044 -4.14632 17.7647 4.99169 -3.85698 28.8229 7.93534 -0.0 0.0 -0.0 8.35842 24.268 14.2974 -35.8251 -38.7741 57.777 0.674983 -18.4883 0.109858 35.061 -0.117596 -4.40816 0.911206 -1.26949 5.57693 -0.0 0.0 -0.0 9.80512 14.8328 -19.2678 -30.831 59.0852 -40.0758 0.572201 15.8256 -0.0795305 4.02364 -0.124287 0.498809 1.71804 28.8947 1.24591 0.0 0.0 0.0 20.2767 -0.165633 -9.51881 -8.22656 0.250284 1.23664 -8.41987 29.312 1.33848 1.81566 -0.0 -0.0 -0.0 0.0 -0.0 12.3206 17.6681 4.64526 -46.9791 0.969365 -6.94617 5.08145 18.6147 0.821865 30.2668 -0.0 -0.0 0.0 0.0 0.0 
2769.9 708.848 -485.06 179.964 -41.4148 -178.946 0.133107 0.137984 -0.792999 0.133437 0.188163 -0.782613 0.130928 0.346812 -0.726371 0.130264 0.227746 -0.772024 -4.88318 18.0019 5.19807 -4.64538 29.2943 8.35068 -0.0 0.0 -0.0 9.55137 24.7561 15.9392 -36.7862 -36.4964 52.505 0.949525 -25.1903 0.212165 34.7827 -0.106061 -4.37451 0.588299 1.02359 4.35278 -0.0 0.0 -0.0 9.62609 13.54 -18.9238 -28.1169 55.9155 -44.1994 0.550343 15.2498 -0.0736754 5.25055 -0.15518 0.652489 2.14932 28.9245 -1.46816 0.0 0.0 0.0 19.8043 -0.254147 -9.41907 -6.73015 0.218022 1.00928 -7.14587 29.0968 1.13228 0.48566 -0.0 -0.0 -0.0 0.0 -0.0 17.0611 18.6304 2.91208 -52.4892 1.4458 -7.64791 4.70582 18.3793 0.760507 29.2861 -0.0 -0.0 0.0 0.0 0.0 
2792.87 715.48 -488.316 -179.723 -43.1142 -177.995 0.33398 0.0781711 -1.17609 0.334737 0.152845 -1.16874 0.331807 0.388693 -1.11276 0.33014 0.208087 -1.16018 -6.55374 17.4802 6.42038 -6.43323 27.8427 9.85417 -0.0 0.0 -0.0 9.59021 23.478 16.2239 -33.0065 -37.3588 51.8935 1.06451 -27.8032 0.263479 34.6929 -0.102377 -4.36365 0.888527 1.58771 6.59002 -0.0 0.0 -0.0 9.60511 9.66762 -18.9771 -29.6178 54.8878 -44.5603 0.428165 11.9752 -0.0449083 5.23988 -0.154925 0.65115 1.97391 22.278 -3.52021 0.0 0.0 0.0 19.5243 0.278176 -8.30429 -6.42689 0.210761 0.963305 -4.86746 29.0383 0.768176 -0.0290042 0.0 0.0 -0.0 0.0 -0.0 24.3502 20.4803 1.04405 -61.0208 2.31121 -8.63694 3.73849 27.8077 0.670153 29.0666 -0.0 -0.0 0.0 0.0 0.0 
2805.53 717.317 -488.043 -179.178 -44.7219 -176.37 0.715949 0.0567767 -1.63071 0.717414 0.160414 -1.6238 0.713145 0.478875 -1.55986 0.709821 0.226548 -1.6159 -7.54738 16.4687 6.58394 -7.49238 26.0726 10.0197 -0.0 0.0 -0.0 10.1324 24.5538 16.8258 -34.7008 -37.1024 51.5208 1.15126 -29.6952 0.30521 32.7981 -0.0285721 -4.13297 0.59099 0.644929 4.21532 -0.0 0.0 -0.0 9.4848 4.26431 -18.7156 -30.7233 53.2176 -44.5601 0.403649 11.3077 -0.0399614 5.54494 -0.162102 0.689458 2.05823 19.6178 -5.32355 0.0 0.0 0.0 18.1692 0.177342 -8.59796 -3.85505 0.139417 0.575094 -2.87961 27.0169 0.447226 -0.433403 0.0 0.0 -0.0 0.0 -0.0 27.1901 21.7763 -1.97334 -62.8621 2.51684 -8.83301 3.4497 28.8798 0.627656 29.5581 -0.0 -0.0 0.0 0.0 0.0 
2833.52 721.626 -475.092 -178.683 -46.6828 -175.126 1.28605 -0.111397 -1.94511 1.28815 0.0125771 -1.94825 1.28797 0.379055 -1.91108 1.28288 0.0725386 -1.94694 -7.51049 16.4846 8.25575 -7.38182 24.8986 11.6433 -0.0 0.0 -0.0 9.53244 24.7056 15.9208 -35.5895 -36.8734 48.8468 1.17702 -30.2436 0.318075 31.8859 0.00422394 -4.0211 0.928865 -0.739218 5.91353 -0.0 0.0 -0.0 9.24388 -0.722442 -18.075 -34.4683 50.9853 -43.6866 0.406978 11.3985 -0.0406168 6.17891 -0.176363 0.769187 2.14918 18.7635 -6.32834 0.0 0.0 0.0 17.0856 0.419317 -8.56946 -3.46881 0.127198 0.517077 -1.34095 27.0079 0.207624 0.136474 -0.0 -0.0 -0.0 0.0 -0.0 31.2776 23.0431 -6.66667 -67.0249 3.00434 -9.2515 3.099 29.1004 0.566176 28.8582 -0.0 -0.0 0.0 0.0 0.0 
2855.0 727.5 -470.323 -178.429 -47.33 -174.323 1.29593 0.0186422 -2.16938 1.29854 0.156615 -2.1638 1.29281 0.561041 -2.09569 1.28675 0.223106 -2.15796 -7.55601 16.4078 7.31815 -7.47163 25.4366 10.7233 -0.0 0.0 -0.0 9.40219 24.8874 15.7001 -35.4265 -36.9817 47.9986 1.22453 -31.2396 0.342364 30.5665 0.0484979 -3.85841 0.886112 -2.4539 4.91879 -0.0 0.0 -0.0 9.13909 -4.14625 -17.696 -34.937 50.0118 -44.6138 0.32194 9.06139 -0.0255108 6.34186 -0.179886 0.789704 2.13264 18.0026 -6.57222 0.0 0.0 0.0 15.8947 0.506323 -8.25716 -3.1043 0.115309 0.462398 0.192974 27.2709 -0.0298293 0.695055 -0.0 -0.0 -0.0 0.0 -0.0 33.2403 26.621 -9.87791 -66.7369 2.96965 -9.22369 2.59817 29.5208 0.478167 28.5878 -0.0 -0.0 0.0 0.0 0.0 
2871.08 730.197 -463.59 -178.648 -46.8468 -174.102 1.36586 -0.0460687 -2.2636 1.36871 0.0980256 -2.26194 1.36505 0.519171 -2.20376 1.3583 0.164705 -2.25807 -8.32804 16.3799 7.71581 -8.27592 25.2986 11.2609 -0.0 0.0 -0.0 9.18017 24.0564 15.5201 -34.744 -37.1971 46.6952 1.24244 -31.6096 0.3517 30.2088 0.0598555 -3.81412 0.76386 -3.91842 3.48462 -0.0 0.0 -0.0 8.7998 -7.4375 -16.8318 -36.4352 49.9541 -44.3556 0.366416 10.2881 -0.0329857 6.13712 -0.17545 0.763926 2.23728 19.2049 -6.70926 0.0 0.0 0.0 15.2756 0.414841 -8.2179 -3.91343 0.141229 0.58387 -0.812626 28.2684 0.126651 0.773092 -0.0 -0.0 -0.0 0.0 -0.0 33.3906 29.321 -12.3175 -66.2979 2.91703 -9.18097 2.5183 28.2609 0.455921 27.9995 -0.0 -0.0 0.0 0.0 0.0 
2888.6 732.332 -461.768 -177.673 -46.9404 -173.021 1.66815 -0.146226 -2.40158 1.67135 0.00684332 -2.40601 1.67113 0.443857 -2.36475 1.66333 0.064931 -2.40514 -7.51607 16.4137 7.0052 -7.44201 25.6611 10.4116 -0.0 0.0 -0.0 9.35817 23.5399 15.8684 -33.976 -36.8107 46.1439 1.25802 -31.9291 0.359901 29.3759 0.0852234 -3.71076 0.594937 -4.93673 1.91808 -0.0 0.0 -0.0 9.07581 -11.5248 -17.0015 -38.898 49.8001 -42.1547 0.306734 8.64002 -0.0231713 6.42146 -0.181586 0.79973 2.10335 19.4664 -5.69433 0.0 0.0 0.0 14.066 1.3615 -7.60712 -1.83646 0.0712472 0.272815 -1.38013 28.2529 0.215326 1.2737 -0.0 -0.0 -0.0 0.0 -0.0 33.7902 31.3365 -14.2372 -64.8913 2.75066 -9.0414 3.13928 26.8675 0.557303 28.0008 -0.0 -0.0 0.0 0.0 0.0 
2895.82 731.723 -462.246 -177.135 -46.2381 -172.163 1.82251 -0.275972 -2.57734 1.8262 -0.111466 -2.58967 1.83125 0.353632 -2.56784 1.82205 -0.0562082 -2.59145 -8.52735 16.0101 6.96622 -8.51723 25.1739 10.4926 -0.0 0.0 -0.0 9.67119 22.8899 16.4484 -32.2445 -35.8602 45.0389 1.24661 -31.6953 0.353887 28.7522 0.103233 -3.63312 0.298029 -5.87833 -0.481997 -0.0 0.0 -0.0 8.29649 -12.8417 -15.4954 -39.7879 49.556 -40.6112 0.429314 12.0064 -0.0451471 6.78227 -0.189115 0.845205 2.18345 20.7923 -5.60221 0.0 0.0 0.0 14.0097 1.18763 -7.6921 -1.44937 0.0569587 0.215127 -2.70937 28.2639 0.423838 1.31267 -0.0 -0.0 -0.0 0.0 -0.0 33.3215 31.4647 -14.4147 -62.0328 2.42345 -8.74552 3.76681 26.3294 0.662944 27.462 -0.0 -0.0 0.0 0.0 0.0 
